<?xml version="1.0" encoding="UTF-8"?>
<svg version="1.1" xmlns="http://www.w3.org/2000/svg" width="180" height="180">
<path d="M0 0 C1.91958262 8.39817396 2.22588024 16.40400201 2 25 C4.64 25 7.28 25 10 25 C10.02724423 22.16660035 10.04695589 19.33346883 10.0625 16.5 C10.07506836 15.31277344 10.07506836 15.31277344 10.08789062 14.1015625 C10.10891185 8.97238283 9.73937287 4.07663894 9 -1 C34.83268812 -1.72958429 55.96316554 5.55327009 75.34375 23.125 C88.76412774 35.99385536 96.23155292 51.2336891 101 69 C101.26695679 69.93984741 101.26695679 69.93984741 101.53930664 70.89868164 C102.02447415 73.1116317 102.11382138 75.06500683 102.09765625 77.328125 C102.09515869 78.0490332 102.09266113 78.76994141 102.09008789 79.51269531 C102.08098389 80.41600586 102.07187988 81.31931641 102.0625 82.25 C102.041875 85.1375 102.02125 88.025 102 91 C93.42 91 84.84 91 76 91 C76 93.64 76 96.28 76 99 C77.32451172 98.96519531 77.32451172 98.96519531 78.67578125 98.9296875 C86.37801243 98.81386447 93.48696035 99.28273379 101 101 C103.98873747 109.67962116 97.65584342 121.21592889 94 129 C88.99047436 138.99322899 88.99047436 138.99322899 85.86328125 142.171875 C83.08999206 146.38122799 83.32680596 150.37248045 83.25 155.3125 C83.22035156 156.24384766 83.19070312 157.17519531 83.16015625 158.13476562 C83.08975775 160.4227169 83.04257931 162.71136198 83 165 C88.28 165 93.56 165 99 165 C99.33 166.32 99.66 167.64 100 169 C96.73188198 170.63405901 93.15000593 170.18453757 89.5625 170.1875 C88.78583984 170.19974609 88.00917969 170.21199219 87.20898438 170.22460938 C83.28767691 170.23474195 81.33381255 170.2225417 78 168 C77.61588725 165.390379 77.39706803 162.9941926 77.3125 160.375 C77.27833984 159.66859375 77.24417969 158.9621875 77.20898438 158.234375 C77.12648692 156.49014312 77.06156665 154.74509605 77 153 C75.35 154.65 73.7 156.3 72 158 C72.350625 159.051875 72.70125 160.10375 73.0625 161.1875 C73.94970527 164.7954681 74.05262882 166.52632489 73 170 C71.125 169.75 71.125 169.75 69 169 C67.27898465 166.41847698 67 165.15081975 67 162 C66.32195312 162.44730469 65.64390625 162.89460937 64.9453125 163.35546875 C52.28642968 171.57848266 40.1439651 177.07573506 25 179 C22.65528248 172.43479094 21.87177653 166.59168735 21.9375 159.625 C21.94652344 158.37976563 21.95554687 157.13453125 21.96484375 155.8515625 C21.97644531 154.91054687 21.98804687 153.96953125 22 153 C19.36 153 16.72 153 14 153 C14 161.58 14 170.16 14 179 C-0.68239419 179.33369078 -11.43824825 178.07911195 -24.96875 172.1328125 C-29.05581851 170.60542865 -33.08911483 169.98506794 -37.40625 169.45703125 C-40.02109567 168.99628284 -41.77635426 168.43854275 -44 167 C-45.0343036 165.31925665 -46.06251402 163.63166989 -46.984375 161.88671875 C-48.47124383 159.12457397 -50.23183169 156.5891036 -52 154 C-52.556875 154.2165625 -53.11375 154.433125 -53.6875 154.65625 C-59.05188593 156.61352595 -63.29852383 157.31098961 -69 157 C-69 160.63 -69 164.26 -69 168 C-70.98 168.99 -70.98 168.99 -73 170 C-73.66 169.67 -74.32 169.34 -75 169 C-75.04944705 164.49765627 -75.08574161 159.9954707 -75.10986328 155.49291992 C-75.11991935 153.96131639 -75.133566 152.42973205 -75.15087891 150.89819336 C-75.17514498 148.69640364 -75.18648688 146.49486781 -75.1953125 144.29296875 C-75.20563507 143.60849167 -75.21595764 142.92401459 -75.22659302 142.21879578 C-75.22745382 138.56938339 -75.08567666 137.12851498 -73 134 C-70.375 133.3125 -70.375 133.3125 -68 133 C-68.47179687 132.16082031 -68.47179687 132.16082031 -68.953125 131.3046875 C-72.77696232 124.14075132 -74.98450397 116.8446267 -77 109 C-77.17942139 108.36980957 -77.35884277 107.73961914 -77.54370117 107.09033203 C-78.04064161 104.81381836 -78.11339054 102.78180057 -78.09765625 100.453125 C-78.09443359 99.60878906 -78.09121094 98.76445313 -78.08789062 97.89453125 C-78.07951172 97.02183594 -78.07113281 96.14914063 -78.0625 95.25 C-78.05798828 94.36183594 -78.05347656 93.47367187 -78.04882812 92.55859375 C-78.037074 90.37232671 -78.02064249 88.18619821 -78 86 C-76.31390625 86.24556641 -76.31390625 86.24556641 -74.59375 86.49609375 C-69.88279524 87.0849631 -65.24126159 87.11269251 -60.5 87.0625 C-59.67757812 87.05798828 -58.85515625 87.05347656 -58.0078125 87.04882812 C-56.00517604 87.03718489 -54.00257773 87.01925556 -52 87 C-52 84.36 -52 81.72 -52 79 C-53.32451172 79.03480469 -53.32451172 79.03480469 -54.67578125 79.0703125 C-62.37801243 79.18613553 -69.48696035 78.71726621 -77 77 C-79.9859639 68.30798181 -73.59149901 55.87217757 -70 48 C-67.87891529 44.16885418 -65.53192186 40.57093947 -63 37 C-62.45472656 36.23042969 -61.90945312 35.46085937 -61.34765625 34.66796875 C-47.76944929 16.42524835 -29.84322088 5.61211216 -8 0 C-7.28585938 -0.22171875 -6.57171875 -0.4434375 -5.8359375 -0.671875 C-3.62828644 -1.06643391 -2.11635806 -0.68025795 0 0 Z M-5 42 C-5.70892349 43.45938547 -6.37127128 44.94181331 -7 46.4375 C-12.59678817 58.00419554 -22.77785519 66.78545377 -34.30078125 72.10546875 C-36.19082478 72.99328563 -36.19082478 72.99328563 -38 75 C-37.67028521 78.29714793 -37.3773161 79.6226839 -35 82 C-30.01473117 81.7554125 -26.39176891 79.81265971 -22.3125 77.125 C-21.40165649 76.52933228 -21.40165649 76.52933228 -20.47241211 75.92163086 C-9.89195997 68.75753753 -0.23336837 58.7935062 5 47 C5.36904422 43.21729678 5.17975966 42.26963949 3 39 C-0.97261966 38.38882774 -2.47450261 38.97613779 -5 42 Z M31.13671875 113.19140625 C29.37082387 115.42618971 27.67274013 117.69488251 26 120 C25.51273437 120.65613281 25.02546875 121.31226562 24.5234375 121.98828125 C20.3077814 127.48014274 20.3077814 127.48014274 19 134 C22.59971507 134.87926234 25.42562672 135.06831827 29 134 C31.75846188 130.98348846 33.79001506 127.79964899 35.92578125 124.33203125 C41.47616667 115.41587539 49.74957046 110.48615507 58.7734375 105.453125 C61.21123571 104.16617126 61.21123571 104.16617126 62 101.5 C62.21973453 98.99847407 62.21973453 98.99847407 60.875 97.1875 C51.93262486 91.52399574 36.61967638 106.74289633 31.13671875 113.19140625 Z M-69 139 C-69 143.29 -69 147.58 -69 152 C-64.96357167 152.34892181 -64.96357167 152.34892181 -61 152 C-58.73880416 150.07295906 -58.73880416 150.07295906 -57 148 C-58.04240174 146.48596405 -59.10975321 144.98908298 -60.1875 143.5 C-60.77917969 142.6646875 -61.37085938 141.829375 -61.98046875 140.96875 C-64.1266485 138.41829427 -64.1266485 138.41829427 -69 139 Z " fill="#A5A5A5" transform="translate(78,1)"/>
<path d="M0 0 C2.39706123 -0.10854617 4.78915838 -0.18753157 7.1875 -0.25 C7.86103516 -0.28351563 8.53457031 -0.31703125 9.22851562 -0.3515625 C12.89041975 -0.42301429 14.82150622 -0.11534178 17.92578125 1.890625 C20.57346836 4.58318816 20.93748395 5.5266642 21.4375 9.3125 C20.97117122 13.24298539 20.84047573 13.59828469 18 15.9375 C16.515 16.9584375 16.515 16.9584375 15 18 C15.48919922 18.94359375 15.48919922 18.94359375 15.98828125 19.90625 C18.68379232 25.1859531 21.03249981 30.40815735 23 36 C22.34 36 21.68 36 21 36 C21 35.34 21 34.68 21 34 C20.39542969 33.95875 19.79085937 33.9175 19.16796875 33.875 C17 33 17 33 15.55078125 30.3125 C15.14214844 29.219375 14.73351562 28.12625 14.3125 27 C13.11872328 23.22370464 13.11872328 23.22370464 11 20 C9.65252916 19.76924918 8.29622435 19.58846937 6.9375 19.4375 C5.638125 19.293125 4.33875 19.14875 3 19 C3 23.62 3 28.24 3 33 C1.68 33 0.36 33 -1 33 C-1.02469081 28.6217488 -1.04285557 24.24353433 -1.05493164 19.86523438 C-1.05996514 18.37531834 -1.06679242 16.88540726 -1.07543945 15.39550781 C-1.08754805 13.25584696 -1.09323807 11.11625132 -1.09765625 8.9765625 C-1.10289307 7.68830566 -1.10812988 6.40004883 -1.11352539 5.07275391 C-1 2 -1 2 0 0 Z " fill="#5C5C5C" transform="translate(69,136)"/>
<path d="M0 0 C15.1368106 0.41470714 15.1368106 0.41470714 20 5 C21.93740524 8.87481048 21.15568467 13.10048859 20.4375 17.25 C18.8038385 20.37526547 17.32212946 21.35403339 14.01953125 22.54296875 C10.62232847 23.3117748 7.47126175 23.18269799 4 23 C4 26.63 4 30.26 4 34 C2.68 34.66 1.36 35.32 0 36 C-0.66 35.67 -1.32 35.34 -2 35 C-2.04944705 30.49765627 -2.08574161 25.9954707 -2.10986328 21.49291992 C-2.11991935 19.96131639 -2.133566 18.42973205 -2.15087891 16.89819336 C-2.17514498 14.69640364 -2.18648688 12.49486781 -2.1953125 10.29296875 C-2.20563507 9.60849167 -2.21595764 8.92401459 -2.22659302 8.21879578 C-2.22745382 4.56938339 -2.08567666 3.12851498 0 0 Z M4 5 C4 9.29 4 13.58 4 18 C8.03642833 18.34892181 8.03642833 18.34892181 12 18 C14.26119584 16.07295906 14.26119584 16.07295906 16 14 C14.95759826 12.48596405 13.89024679 10.98908298 12.8125 9.5 C12.22082031 8.6646875 11.62914062 7.829375 11.01953125 6.96875 C8.8733515 4.41829427 8.8733515 4.41829427 4 5 Z " fill="#525252" transform="translate(5,135)"/>
<path d="M0 0 C1.83984375 0.15234375 1.83984375 0.15234375 4 1 C5.37890625 3.44140625 5.37890625 3.44140625 6.5625 6.5625 C7.19285156 8.18478516 7.19285156 8.18478516 7.8359375 9.83984375 C8.79121673 12.43320246 9.74072186 15.02853267 10.6875 17.625 C11.74409317 21.01258558 11.74409317 21.01258558 14 23 C15.57541157 27.39456911 16.36966226 30.48011455 15 35 C13.125 34.75 13.125 34.75 11 34 C8.43586505 30.53841782 9 28.67652295 9 24 C4.05 24 -0.9 24 -6 24 C-6.99 27.3 -7.98 30.6 -9 34 C-9.99 34 -10.98 34 -12 34 C-11.40133184 29.80698583 -10.43844368 26.03317559 -9.00390625 22.05078125 C-8.41319336 20.40819336 -8.41319336 20.40819336 -7.81054688 18.73242188 C-7.39869141 17.60384766 -6.98683594 16.47527344 -6.5625 15.3125 C-6.15451172 14.17232422 -5.74652344 13.03214844 -5.32617188 11.85742188 C-2.2606456 3.39096841 -2.2606456 3.39096841 0 0 Z " fill="#595959" transform="translate(136,136)"/>
<path d="M0 0 C3.69796037 1.84101044 6.36678562 4.45249134 8.21875 8.1484375 C9.96836823 13.99091267 9.62845483 20.11913478 7.6875 25.83984375 C4.79788778 29.82551577 1.37130927 32.39976956 -3.125 34.33984375 C-8.95879477 35.17016204 -14.04409852 34.42823485 -19.125 31.33984375 C-23.36700284 26.11792537 -24.32640622 20.91652301 -23.9375 14.40234375 C-23.22172204 8.38086169 -20.99605321 5.07399063 -16.5625 0.96484375 C-11.19547729 -1.57229426 -5.69869882 -1.77036783 0 0 Z M-18.125 7.33984375 C-20.74124086 11.62096515 -20.68492439 16.46050264 -20.125 21.33984375 C-18.29169816 25.92309836 -15.50753554 28.14857598 -11.125 30.33984375 C-7.28710823 31.08266151 -3.83975414 31.19540049 -0.28515625 29.421875 C3.43354129 26.61239447 5.1065968 23.86488484 5.875 19.33984375 C5.93013377 14.44081481 5.62327484 10.57836762 3.0625 6.33984375 C-1.00738642 2.61880473 -4.45813957 1.83218552 -9.87109375 1.95703125 C-13.82131201 2.6279522 -15.44146431 4.3944997 -18.125 7.33984375 Z " fill="#545354" transform="translate(53.125,136.66015625)"/>
<path d="M0 0 C0.99 0.33 1.98 0.66 3 1 C3.91299547 7.64795961 3.98938155 13.87468898 3.5625 20.5625 C3.51029297 21.47580078 3.45808594 22.38910156 3.40429688 23.33007812 C3.2762302 25.55378135 3.13907385 27.77695804 3 30 C8.28 30 13.56 30 19 30 C19.33 31.32 19.66 32.64 20 34 C16.73188198 35.63405901 13.15000593 35.18453757 9.5625 35.1875 C8.78583984 35.19974609 8.00917969 35.21199219 7.20898438 35.22460938 C3.28767691 35.23474195 1.33381255 35.2225417 -2 33 C-2.255137 30.16919426 -2.32672902 27.57565467 -2.25 24.75 C-2.23831787 23.94892822 -2.22663574 23.14785645 -2.21459961 22.32250977 C-1.82595249 1.82595249 -1.82595249 1.82595249 0 0 Z " fill="#4E4D4E" transform="translate(158,136)"/>
<path d="M0 0 C7.3905476 -0.14715692 14.64424835 0.29223008 22 1 C22 1.99 22 2.98 22 4 C18.7 4 15.4 4 12 4 C12 13.9 12 23.8 12 34 C10.68 34 9.36 34 8 34 C8 24.43 8 14.86 8 5 C4.7 4.67 1.4 4.34 -2 4 C-1.34 2.68 -0.68 1.36 0 0 Z " fill="#5A5A5A" transform="translate(97,135)"/>
<path d="M0 0 C7.19680113 -0.46850785 12.2283054 -0.59379775 18 4 C22.21910922 9.19274981 22.56801994 13.57761769 22.3203125 20.19140625 C21.75652753 25.13483786 20.19420417 27.86864868 16.625 31.25 C14.12926772 32.91382152 11.82969395 34.02981922 9 35 C8.505 33.515 8.505 33.515 8 32 C5.98491642 31.26676204 5.98491642 31.26676204 4 31 C4.60328125 30.91363281 5.2065625 30.82726562 5.828125 30.73828125 C9.70883523 30.05602736 12.38372044 29.49302365 15.5 27 C17.90363244 22.19273512 18.67483276 17.2069486 17.55859375 11.90234375 C16.45264421 8.92575955 15.14551243 7.11798305 12.6875 5.125 C9.77888905 3.90744193 7.12526065 3.3634024 4 3 C4 2.34 4 1.68 4 1 C2.68 0.67 1.36 0.34 0 0 Z " fill="#5A5A5A" transform="translate(40,136)"/>
<path d="M0 0 C1.5675 -0.061875 3.135 -0.12375 4.75 -0.1875 C6.07257813 -0.23970703 6.07257813 -0.23970703 7.421875 -0.29296875 C10.49987876 0.0568044 11.81075346 0.83597519 14 3 C14.51020728 7.08165827 14.31361802 8.52957297 12 12 C9.11788698 12.96070434 7.30149956 13.10581883 4.3125 13.0625 C2.889375 13.041875 1.46625 13.02125 0 13 C0 8.71 0 4.42 0 0 Z " fill="#A3A3A3" transform="translate(72,139)"/>
<path d="M0 0 C1.90234375 0.08984375 1.90234375 0.08984375 4 1 C5.37890625 3.44140625 5.37890625 3.44140625 6.5625 6.5625 C7.19285156 8.18478516 7.19285156 8.18478516 7.8359375 9.83984375 C8.79121673 12.43320246 9.74072186 15.02853267 10.6875 17.625 C11.74409317 21.01258558 11.74409317 21.01258558 14 23 C15.57541157 27.39456911 16.36966226 30.48011455 15 35 C13.125 34.75 13.125 34.75 11 34 C8.97946073 30.79135336 8.33415399 27.42952524 7.5625 23.75 C6.09231088 17.13414895 4.24548969 10.99167327 1 5 C0.01 5.33 -0.98 5.66 -2 6 C-1.125 1.125 -1.125 1.125 0 0 Z " fill="#585757" transform="translate(136,136)"/>
<path d="M0 0 C2 1 2 1 2.81640625 3.328125 C3.06261719 4.29234375 3.30882812 5.2565625 3.5625 6.25 C3.81128906 7.20390625 4.06007812 8.1578125 4.31640625 9.140625 C4.93937602 11.74641857 5.47456057 14.37280285 6 17 C2.37 17 -1.26 17 -5 17 C-3.7915371 11.05064416 -2.25422333 5.63555833 0 0 Z " fill="#9F9FA0" transform="translate(137,140)"/>
<path d="M0 0 C1.32 0.33 2.64 0.66 4 1 C2.35 5.95 0.7 10.9 -1 16 C2.63 16 6.26 16 10 16 C10 16.33 10 16.66 10 17 C6.04 17 2.08 17 -2 17 C-2.33 16.34 -2.66 15.68 -3 15 C-3.99 15.495 -3.99 15.495 -5 16 C-3.41078475 10.63904723 -1.81027062 5.29156027 0 0 Z " fill="#606060" transform="translate(133,141)"/>
<path d="M0 0 C5.75 0.75 5.75 0.75 8 3 C8.125 6.625 8.125 6.625 8 10 C4.69713914 8.89904638 4.21489099 8.3103981 2.3125 5.5625 C1.65701172 4.63630859 1.65701172 4.63630859 0.98828125 3.69140625 C0 2 0 2 0 0 Z " fill="#9F9E9F" transform="translate(14,139)"/>
<path d="M0 0 C3.63 0 7.26 0 11 0 C10.01 0.495 10.01 0.495 9 1 C9 1.66 9 2.32 9 3 C7.35 3 5.7 3 4 3 C4 2.34 4 1.68 4 1 C2.68 0.67 1.36 0.34 0 0 Z " fill="#606060" transform="translate(40,136)"/>
</svg>
